<svg version="1" xmlns="http://www.w3.org/2000/svg" width="170.667" height="170.667" viewBox="0 0 128.000000 128.000000"><path d="M1.7 1.8C.2 3.5 0 8.2 0 48.2c0 41.6.1 44.6 1.8 46.1 1.5 1.4 5.1 1.7 23.9 1.9l22 .3-2.3 9.8c-1.3 5.5-2.2 10.2-2 10.6.3.4-1.7.6-4.3.4-5.8-.4-7.4 1-6.9 6.4l.3 3.8 29.8.3 29.8.2.8-2.2c1-2.8.4-7-1.2-8-.7-.5-2.3-.7-3.7-.6-2.4.3-2.6-.2-5.1-10.2l-2.6-10.5 22-.3c18.8-.2 22.4-.5 23.9-1.9 1.7-1.5 1.8-4.5 1.8-46.3 0-42-.1-44.8-1.8-46.3S118.7 0 63.8 0C6.5 0 3.2.1 1.7 1.8z"/></svg>